<svg xmlns="http://www.w3.org/2000/svg" width="48" height="48" fill="none" id="confluence"><path fill="#fff" d="M0 24C0 10.745 10.745 0 24 0s24 10.745 24 24-10.745 24-24 24S0 37.255 0 24Z"></path><path fill="url(#a)" d="M12.868 29.562c-.247.404-.526.873-.762 1.246a.762.762 0 0 0 .255 1.036l4.953 3.048a.762.762 0 0 0 1.055-.26c.198-.33.454-.761.732-1.222 1.962-3.238 3.935-2.842 7.493-1.143l4.91 2.335a.762.762 0 0 0 1.025-.38l2.358-5.334a.762.762 0 0 0-.38-.998 599.293 599.293 0 0 1-4.953-2.354c-6.674-3.242-12.347-3.033-16.686 4.026Z"></path><path fill="url(#b)" d="M35.074 17.46c.248-.404.526-.873.762-1.246a.762.762 0 0 0-.255-1.036l-4.953-3.048a.762.762 0 0 0-1.085.251c-.199.332-.454.762-.732 1.223-1.962 3.238-3.935 2.842-7.493 1.143l-4.896-2.324a.762.762 0 0 0-1.024.381l-2.358 5.334a.762.762 0 0 0 .38.998c1.037.487 3.098 1.459 4.953 2.354 6.69 3.238 12.362 3.02 16.7-4.03Z"></path><defs><linearGradient id="a" x1="43.355" x2="37.809" y1="32.716" y2="19.993" gradientUnits="userSpaceOnUse"><stop offset=".18" stop-color="#0052CC"></stop><stop offset="1" stop-color="#2684FF"></stop></linearGradient><linearGradient id="b" x1="1892.63" x2="1828.06" y1="-18635.3" y2="-18930.7" gradientUnits="userSpaceOnUse"><stop offset=".18" stop-color="#0052CC"></stop><stop offset="1" stop-color="#2684FF"></stop></linearGradient></defs></svg>