<svg fill="none" viewBox="0 0 189 53" xmlns="http://www.w3.org/2000/svg">
  <path fill="#FFF" d="M110.045 24.224h-2.405l-4.378 4.502v-9.003h-1.85v15.354h1.85v-5.056l4.995 4.994.061.062h2.22v-.185l-5.611-5.55zm-11.898 8.223c-.679.678-1.666 1.048-2.775 1.048-1.912 0-3.824-1.172-3.824-3.885 0-2.281 1.604-3.885 3.824-3.885.986 0 1.911.37 2.651 1.049l.062.061 1.171-1.233-.061-.062C98.085 24.492 96.79 24 95.31 24c-3.392 0-5.673 2.281-5.673 5.611 0 3.885 2.836 5.612 5.673 5.612h.062c1.48 0 2.898-.555 3.884-1.604l.062-.061-1.233-1.234zm-12.581-2.404c0 1.973-1.356 3.453-3.268 3.515-2.035 0-3.268-1.233-3.268-3.33v-5.981h-1.85v5.981c0 3.083 1.85 5.057 4.748 5.057h.062c1.418 0 2.713-.679 3.576-1.727l.062-.123.062 1.665h1.726V24.247h-1.85zM67.298 19.66h-5.612v15.417h5.612c5.365 0 7.708-3.947 7.708-7.832 0-3.638-2.405-7.585-7.708-7.585zm5.796 7.524c0 2.96-1.788 5.92-5.735 5.92h-3.7V21.571h3.639c3.946 0 5.796 2.898 5.796 5.612zm96.018 1.17h4.748v3.577c-1.171.986-2.59 1.541-4.131 1.541-4.193 0-6.105-3.021-6.105-5.981 0-3.022 1.912-6.29 6.043-6.29 1.665 0 3.207.617 4.44 1.727l.062.061 1.11-1.295-.062-.061c-1.48-1.48-3.453-2.22-5.611-2.22-2.344 0-4.317.74-5.735 2.22-1.48 1.48-2.282 3.576-2.22 5.92 0 3.638 2.096 7.831 8.016 7.831h.124a7.716 7.716 0 0 0 5.796-2.59V26.69h-6.536v1.665zm-51.181-8.694h-5.612v15.417h5.612c5.365 0 7.708-3.947 7.708-7.832 0-3.638-2.405-7.584-7.708-7.584zm5.796 7.524c0 2.96-1.788 5.92-5.735 5.92h-3.638V21.572h3.638c3.885 0 5.735 2.898 5.735 5.612zm59.463-3.185c-3.269 0-5.612 2.405-5.612 5.673 0 3.268 2.343 5.611 5.612 5.611 3.268 0 5.673-2.343 5.673-5.611 0-3.33-2.343-5.673-5.673-5.673zm3.823 5.673c0 2.282-1.603 3.885-3.823 3.885-2.159 0-3.762-1.603-3.762-3.885 0-2.343 1.542-4.008 3.823-4.008 2.159.061 3.762 1.726 3.762 4.008zm-50.814.371c0 1.973-1.356 3.453-3.268 3.515-2.035 0-3.268-1.233-3.268-3.33v-5.981h-1.85v5.981c0 3.083 1.85 5.057 4.686 5.057h.062c1.418 0 2.713-.679 3.576-1.727l.062-.123.062 1.665h1.726V24.247h-1.85v5.796zm12.58 2.404c-.678.678-1.665 1.048-2.775 1.048-1.911 0-3.823-1.172-3.823-3.885 0-2.281 1.603-3.885 3.823-3.885.987 0 1.912.37 2.652 1.049l.062.061 1.171-1.233-.061-.062c-1.11-1.048-2.405-1.541-3.885-1.541-3.392 0-5.673 2.281-5.673 5.611 0 3.885 2.836 5.612 5.673 5.612h.061c1.48 0 2.899-.555 3.885-1.604l.062-.061-1.233-1.234zm11.899-8.223h-2.405l-4.378 4.502v-9.003h-1.85v15.354h1.85v-5.056l4.994 4.994.062.062h2.22v-.185l-5.611-5.55z"/>
  <path fill="#de5833" fill-rule="evenodd" d="M26.5 53C41.136 53 53 41.136 53 26.5S41.136 0 26.5 0 0 11.864 0 26.5 11.864 53 26.5 53z" clip-rule="evenodd"/>
  <path fill="#ddd" fill-rule="evenodd" d="M30.227 46.272c0-.207.05-.255-.608-1.566-1.749-3.503-3.507-8.44-2.707-11.625.146-.579-1.648-21.425-2.915-22.097-1.41-.75-3.143-1.942-4.728-2.207-.805-.128-1.86-.067-2.684.044-.147.02-.153.283-.013.33.542.184 1.2.502 1.587.984.073.09-.026.234-.142.239-.366.013-1.028.166-1.902.908-.101.086-.017.246.113.22 1.878-.372 3.797-.189 4.927.84.073.066.035.185-.06.211-9.811 2.667-7.87 11.2-5.257 21.674 2.213 8.875 3.113 12.028 3.433 13.103a.606.606 0 0 0 .366.398c3.438 1.29 10.59 1.316 10.59-.939z" clip-rule="evenodd"/>
  <path fill="#fff" d="M31.572 48.238c-1.19.466-3.52.673-4.865.673-1.973 0-4.814-.31-5.849-.776-.639-1.968-2.552-8.066-4.442-15.811-.061-.254-.123-.506-.185-.757l-.001-.006c-2.246-9.174-4.08-16.667 5.974-19.021.091-.022.136-.131.076-.204-1.154-1.368-3.315-1.817-6.048-.874-.112.039-.209-.074-.14-.17.536-.739 1.584-1.307 2.1-1.556.107-.051.101-.208-.012-.243a11.54 11.54 0 0 0-1.562-.372c-.153-.025-.167-.288-.013-.309 3.874-.52 7.92.642 9.95 3.2.018.024.046.04.076.047 7.434 1.596 7.966 13.347 7.11 13.882-.17.106-.71.045-1.424-.035-2.893-.323-8.62-.964-3.893 7.846.047.087-.015.202-.113.217-2.665.415.75 8.767 3.261 14.27z"/>
  <path fill="#3ca82b" d="M34.897 37.555c-.566-.263-2.742 1.298-4.186 2.496-.302-.427-.87-.738-2.154-.515-1.124.196-1.744.467-2.021.934-1.773-.672-4.757-1.71-5.478-.708-.787 1.095.197 6.277 1.244 6.95.546.351 3.16-1.328 4.524-2.487.22.31.575.488 1.303.471 1.102-.025 2.89-.282 3.167-.795a.569.569 0 0 0 .044-.11c1.403.524 3.871 1.08 4.423.996 1.437-.216-.2-6.924-.866-7.232z"/>
  <path fill="#4cba3c" d="M30.844 40.204c.06.106.107.218.148.332.2.56.525 2.338.28 2.778-.247.439-1.847.651-2.835.668s-1.209-.344-1.409-.903c-.16-.447-.238-1.5-.237-2.101-.04-.894.286-1.208 1.795-1.452 1.116-.18 1.707.03 2.047.39 1.585-1.184 4.23-2.853 4.488-2.548 1.286 1.521 1.448 5.143 1.17 6.6-.091.476-4.35-.472-4.35-.986 0-2.133-.553-2.718-1.097-2.778zm-9.329-.666c.349-.552 3.177.135 4.73.825 0 0-.32 1.446.189 3.149.148.498-3.572 2.715-4.058 2.334-.561-.441-1.594-5.148-.861-6.308z"/>
  <path fill="#fc3" fill-rule="evenodd" d="M22.885 28.325c.228-.995 1.295-2.87 5.101-2.825 1.925-.008 4.315-.001 5.9-.181a21.212 21.212 0 0 0 5.27-1.282c1.648-.628 2.233-.488 2.438-.112.225.413-.04 1.127-.616 1.784-1.1 1.255-3.077 2.228-6.57 2.516s-5.805-.648-6.8.877c-.43.658-.098 2.208 3.279 2.696 4.563.659 8.311-.793 8.774.084.463.877-2.204 2.661-6.775 2.698-4.57.038-7.426-1.6-8.438-2.414-1.285-1.033-1.86-2.539-1.563-3.841z" clip-rule="evenodd"/>
  <g fill="#14307e" opacity=".8">
    <path d="M28.706 17.443c.255-.417.82-.74 1.745-.74s1.36.369 1.662.78c.061.083-.032.181-.127.14l-.07-.03c-.338-.148-.753-.33-1.465-.34-.761-.01-1.241.18-1.544.344-.101.056-.262-.055-.201-.154zm-10.416.534c.898-.375 1.604-.327 2.103-.208.105.024.178-.089.094-.156-.387-.313-1.254-.7-2.385-.28-1.01.377-1.485 1.159-1.487 1.672-.001.122.248.132.312.03.174-.278.464-.682 1.362-1.058z"/>
    <path fill-rule="evenodd" d="M31.237 23.154c-.794 0-1.438-.642-1.438-1.433s.644-1.433 1.438-1.433c.794 0 1.438.642 1.438 1.433s-.644 1.433-1.438 1.433zm1.013-1.908a.372.372 0 0 0-.745 0 .372.372 0 0 0 .745 0zm-10.544 1.467c0 .923-.75 1.671-1.676 1.671a1.675 1.675 0 0 1-1.677-1.67c0-.924.752-1.672 1.677-1.672.924 0 1.676.748 1.676 1.671zm-.494-.554a.434.434 0 1 0-.867.002.434.434 0 0 0 .867-.002z" clip-rule="evenodd"/>
  </g>
  <path fill="#fff" fill-rule="evenodd" d="M26.5 48.756c12.292 0 22.256-9.964 22.256-22.256S38.792 4.244 26.5 4.244 4.244 14.208 4.244 26.5 14.208 48.756 26.5 48.756zm0 2.07c13.435 0 24.326-10.891 24.326-24.326S39.935 2.174 26.5 2.174 2.174 13.065 2.174 26.5 13.065 50.826 26.5 50.826z" clip-rule="evenodd"/>
  <path fill="#fff" fill-rule="evenodd" d="M26.497 48.438c12.118 0 21.941-9.823 21.941-21.94S38.615 4.555 26.498 4.555 4.555 14.38 4.555 26.497s9.824 21.941 21.941 21.941zm24.292-21.94c0 13.415-10.876 24.29-24.292 24.29S2.206 39.914 2.206 26.499 13.08 2.205 26.497 2.205 50.79 13.08 50.79 26.497z" clip-rule="evenodd"/>
</svg>
