<svg fill="FFF" version="1.1" xmlns="http://www.w3.org/2000/svg" xmlns:xlink="http://www.w3.org/1999/xlink" x="0px" y="0px" viewBox="0 0 1000 1000" enable-background="new 0 0 1000 1000" xml:space="preserve">
<g><g><g><g><path style="fill:#CCC;" d="M500,990C229.8,990,10,770.2,10,500S229.8,10,500,10s490,219.8,490,490S770.2,990,500,990z M500,50C251.9,50,50,251.9,50,500s201.9,450,450,450s450-201.9,450-450S748.1,50,500,50z"/></g><path style="fill:#CCC;" d="M783.5,480H520V216.5c0-11-8.9-20-20-20c-11.1,0-20,9-20,20V480H216.5c-11,0-20,9-20,20s9,20,20,20H480v263.5c0,11,8.9,20,20,20s20-9,20-20V520h263.5c11,0,20-9,20-20S794.5,480,783.5,480z"/></g></g><g></g><g></g><g></g><g></g><g></g><g></g><g></g><g></g><g></g><g></g><g></g><g></g><g></g><g></g><g></g></g>
</svg>