<svg version="1.1" id="Layer_1"
	 xmlns="http://www.w3.org/2000/svg" x="0px" y="0px" viewBox="0 0 750 750"
	 style="enable-background:new 0 0 750 750;" xml:space="preserve">
	<g fill="#FFF">
		<path d="M705.7,399.7c1.8-3.8,1.9-7.8,1.9-11.9c0-2.7-1.1-4.5-3.7-5.4c-14.3-5.1-28.6-10.2-42.9-15.2c-2.5-0.9-5.6-2.1-7.6,0.2
			c-1.9,2.2-0.8,5.1,0,7.8c3.7,12.6,10.1,23.9,15.9,35.5c0.8,1.7,3.3,3.8,1.9,5.2c-1.9,2-4.5,0.2-6.4-1.1c-2.8-1.9-5.5-4-7.9-6.3
			c-3.6-3.6-6.9-7.4-10.4-11.1c-1.4-1.4-2.5-3.8-4.6-3.6c-2.6,0.3-2.2,3.1-2.7,4.9c-4,13.2-7.9,26.5-11.7,39.8
			c-2.7,9.4-5.3,18.8-7.7,28.3c-0.6,2.2-1.7,5.1,0.7,6.5c2,1.2,3.6-1.2,5.2-2.3c6.6-4.7,13.4-9.2,20.6-13c4.2-2.2,8.3-4.5,13-5.4
			c3.6-0.7,4.9,0.6,3.7,4c-6.5,18.8-15.5,36-31.7,48.5c-28.3,22-72.1,15.6-91.2-13.4c-11.2-17.1-7.4-39.3,8.6-49.9
			c16.2-10.7,32.7-4.4,37.5,14.4c1.8,7,1.7,14,0.8,21.1c-0.7,6.3,1.9,8.1,7.7,5.6c4-1.7,7.1-4.6,9.5-8.1c10-14.8,14-31.3,11.4-48.7
			c-3.8-25.9-26.2-41.2-52-36.6c-5.9,1-11.1,3.8-16.9,6.3c13.3-28.2,16.8-56.1,4.1-85.4c26.6,15.7,50.7,33.7,73.9,52.9
			c9.4,7.7,9.2,7.7,17-1.5c2-2.4,2-3.5-0.4-5.6c-34.6-29-70.9-55.3-111.5-75.4c-33.7-16.7-69.3-28.3-105-39.7
			c-3.1-1-3.4,0.7-4.1,2.6c-8.2,23.8-16.1,47.6-22.7,71.9c-3.3,12.1-3.2,12,9.5,12c3,0,4.3-0.8,5.1-3.9c4.8-20,11.4-39.5,17.8-59.1
			c1.1-3.5,2.3-4.3,5.9-3.1c28.1,9.1,56,18.9,82.6,31.8c8.5,4.1,17.1,8.2,25,13.4c-30.2,19.4-31.8,50.4-34.3,81.5
			c-2.8-2.4-5-4.6-7.5-6.5c-11.9-8.8-24.9-11.3-38.7-5.6c-13.8,5.7-21.6,16.5-23.1,31.4c-1.5,14.4,4,26.8,12,38.3
			c2,2.9,3.5,7.6,8.1,6.3c4.3-1.1,4-5.7,4.6-9.3c1.4-7.9,2.9-15.8,11.2-19.8c7.9-3.8,15.8-3.4,23.1,1.5c8.1,5.5,10.7,14,9.9,23.1
			c-1.5,17.9-10.3,31.6-25.9,40.5c-15.1,8.7-31.1,7.9-47.2,3.1c-26.2-7.9-42.8-24.8-47.6-52.3c-0.4-2.5-1.6-5.2,1-7
			c2.9-2,5.5-0.2,8,1.2c6.7,3.7,12.5,8.6,18.6,13.2c1.6,1.2,3.3,2.9,5.4,1.8c2.2-1.1,2.6-3.4,2.5-5.7c-0.1-22.3,0.1-44.7,1.1-67
			c0.3-5.7-1.6-6.6-6.7-3.8c-5.8,3.2-10.8,7.6-15.5,12.3c-3.5,3.5-7.1,7-10,11.4c-1.7-2.2-1-3.9-0.8-5.5c2.1-18.4,10.4-34.4,20-49.9
			c0.7-1.2,2.5-2.2,1.5-3.9c-0.8-1.3-2.5-0.8-3.8-0.8c-23,0-46,0-69.1,0c-1.5,0-3.4-0.6-4.1,1.1c-0.6,1.3,0.8,2.4,1.6,3.6
			c8,12.2,14.5,25.2,18.2,39.4c1.3,5,2.7,10.2,1.6,16.3c-7.6-9.4-15.4-17.4-25-23.4c-2-1.2-4.3-3-6.5-1.5c-1.8,1.2-1,3.7-1,5.7
			c0.3,21.8,0.7,43.7,1.1,65.5c0,2.4-0.2,5.1,2.4,6.2c2.6,1.2,4.4-1,6.2-2.4c6.2-4.7,12.2-9.7,19.1-13.3c5.6-2.9,8.5-1,7.9,5.2
			c-1,10.5-5,19.9-11,28.5c-12.4,17.5-30.2,25.6-50.7,28.1c-19.9,2.5-36.9-3.6-49.2-20c-8.3-11.1-12.5-23.6-8.7-37.6
			c2.6-9.7,11.7-16.4,21.5-16.2c10.7,0.2,17.3,5.6,20.1,16.5c0.8,3.3,1.2,6.6,1.9,9.9c0.5,2.3,1.4,4.7,4,5.5
			c2.8,0.8,4.4-1.2,5.8-3.1c6.1-8,10.9-16.7,13.3-26.5c4.4-17.9-2.4-35.5-17.1-44.1c-15.2-9-34-6.4-47.6,6.5c-1.1,1-1.7,3-4,2.7
			c-0.1-9-0.7-18-2.3-26.8c-4.1-21.7-10.5-42.2-32-53.9c1.1-0.7,1.9-1.3,2.7-1.7c33.7-19.1,69.8-32.3,106.5-44
			c3.5-1.1,3.7,0.9,4.4,2.9c5.8,17.1,11.5,34.2,16,51.7c3.2,12.2,3.1,12.1,15.7,11.8c2.9-0.1,3.6-0.5,2.9-3.7
			c-6.7-27.4-15.8-54.1-24.8-80.7c-0.7-2.2-1.5-2.8-4-2c-25.7,8.2-51.4,16.5-76.4,26.7c-49.4,20.1-93,49.3-133.7,83.3
			c-3,2.5-8,4.9-8.1,7.6c-0.2,2.8,4.5,5.8,6.7,9c2,3,3.5,2.6,6,0.5c11.1-9.6,22.7-18.8,34.5-27.5c14.5-10.7,29.3-21,45.3-30.3
			c-12.8,29.2-9.3,57.1,4.1,85.4c-3-1.4-5.3-2.5-7.6-3.5c-22.9-9.7-49.1-0.5-57.9,21.8c-8.8,22.1-4,43.1,9.4,62.3
			c2.3,3.3,5.6,5.8,9.7,7c4.6,1.3,7.1-0.6,6.3-5.2c-1.2-7.1-0.9-14.1,0.3-21.2c2.7-16.6,17-24.5,32.5-18.1
			c19.8,8.2,26.5,33.4,13.9,52.7c-18.7,28.7-62.3,35.3-90.8,13.6c-14.9-11.3-23.9-26.8-30.3-44.1c-1-2.7-3.9-6.1-1.6-8.2
			c2.4-2.2,6.1,0,9,1.3c10.3,4.4,19.6,10.6,28.7,17.1c1.4,1,2.8,3.1,4.7,1.8c1.7-1.2,0.8-3.4,0.6-5.2c-0.9-7.4-3.3-14.5-5.3-21.6
			c-4.8-16.5-9.6-33-14.4-49.5c-1.1-3.8-2.8-4.3-5.5-1.2c-2.2,2.6-4.4,5.1-6.8,7.6c-4.3,4.5-8.6,9.1-14.2,12.2
			c-1.6,0.9-3.7,2.1-5.2,0.7c-1.5-1.5,0.6-3,1.3-4.4c5.7-11.1,11.7-22.1,15.6-34c1.1-3.4,3.6-7.6,0.4-10.5
			c-2.8-2.5-6.8-0.4-10.1,0.8c-12.2,4.4-24.4,9-36.6,13.3c-7.2,2.5-8.6,4.6-7.1,11.9c1.9,9.4,6.7,17.6,11.1,26
			c0.9,1.7,1.5,3,0.1,4.9c-11.6,15.9-3.6,36.1,9.2,44c6.6,4.1,9.6,9.2,11.5,15.9c0.4,1.5,1,2.9,1.5,4.3c4.7,13,9.9,25.8,11.8,39.7
			c2.5,18-0.3,35.7-3.5,53.4c-0.4,2.1-0.8,3.7,1,5.5c13.1,12.3,26.1,24.6,39,37c1.5,1.4,2.4,1.6,4.2,0.2c6.4-5.4,13.9-8.9,21.7-11.8
			c30.3-11.3,62-16.3,93.8-20.2c37.3-4.6,74.8-6.3,112.4-7c41.8-0.7,83.6,0.8,125.2,4.6c33.5,3,66.8,7.4,99.3,16.4
			c14.5,4,28.9,8.5,40.8,18.3c2.4,2,3.3-0.1,4.5-1.2c10.2-9.6,19.8-20,30.7-28.8c8.3-6.6,9.2-13.4,7.1-23
			c-3.9-18.5-4.4-37.2,0.5-55.8c3.5-13.2,9.2-25.7,13.3-38.8c0.9-2.9,2.4-4.7,5.2-6.1c14.6-7.3,23.1-26.7,15.9-40.3
			c-4.2-8-2.2-13.2,1.4-19.6C702.7,407.3,704,403.4,705.7,399.7z M69.8,456.8c-1.8,0.5-2.6-1.3-3.4-2.6c-3.4-5.6-4.8-11.8-5.6-18.2
			c-0.2-1.7-0.1-3.8,1.6-4.5c2-0.8,2.9,1.3,3.7,2.7c3.4,5.6,4.9,11.8,5.5,18.4C71.3,454.1,71.8,456.2,69.8,456.8z M121.5,577.5
			c-1,6.3-2,12.6-3.2,19.8c-5.8-4.8-10.8-9-15.8-13.1c-2-1.6-1.3-3.7-1.1-5.6c0.6-6.2,1.3-12.4,2.1-19.6c6.1,5.1,11.9,9.9,17.5,14.7
			C122.2,574.7,121.7,576.2,121.5,577.5z M152,549.5c0-4.9,4.6-9.3,9.5-9.2c4.8,0.1,8.9,4.2,9,9.1c0.1,5.3-3.7,9.2-9.1,9.3
			C156.2,558.7,152,554.5,152,549.5z M169.7,592.6c-5,0-9.5-4.4-9.4-9.4c0.1-5.1,4.4-9.2,9.6-9c5.1,0.2,8.7,4,8.7,9.2
			C178.6,588.3,174.5,592.5,169.7,592.6z M272,558.4c-8.4,9.4-19.4,13-30.7,13.3c-10.6-0.1-19.3-2.5-26.6-9.1
			c-9.1-8.4-10.5-20.4-3.8-30.7c12.1-18.6,42.8-23,59.7-8.5C281.2,532.5,281.9,547.4,272,558.4z M299.7,521.2
			c-0.1-4.8,4.5-9.3,9.5-9.3c5,0,9.4,4.6,9.3,9.5c-0.1,5.1-4.5,9.1-9.7,9C303.9,530.1,299.8,526.1,299.7,521.2z M314.5,566.6
			c-4.9-0.1-9-4.3-9-9.1c-0.1-4.9,4.4-9.4,9.3-9.4c5,0,9.2,4.3,9.1,9.4C323.8,562.9,319.8,566.8,314.5,566.6z M375.2,400.7
			c4.7,0,8.3,3.6,8.4,8.3c0.1,4.7-4,8.9-8.5,8.9c-4,0-8.5-4.5-8.6-8.5C366.4,404.8,370.6,400.6,375.2,400.7z M391.4,534
			c-5.3,8.7-10.6,17.5-16.1,26.8c-5.6-9.2-10.8-17.8-16-26.3c-0.8-1.3-0.8-2.4,0-3.7c5.2-8.8,10.4-17.7,16-27.4
			c5.7,9.7,10.8,18.6,16,27.4C391.9,531.9,392.1,532.9,391.4,534z M436,566.7c-5.1,0-9.6-4.2-9.6-9.1c-0.1-4.7,4.2-9.1,8.9-9.4
			c4.9-0.3,9.7,4.1,9.8,9C445.2,562.2,441,566.6,436,566.7z M441.1,530.2c-5.1-0.1-8.8-4-8.9-9.1c0-5.2,4.2-9.4,9.2-9.4
			c5,0,9.1,4.3,9.1,9.5C450.5,526.5,446.4,530.4,441.1,530.2z M542.9,551.3c-3.1,10.9-11.6,16.2-21.9,19.1c-3.6,1-7.3,1.5-11.1,1.2
			c-11.2-0.2-21.3-3.4-29.5-11.3c-14-13.3-11.2-32.2,5.9-41.2c14.8-7.8,36.2-5,48.3,6.6C541.9,532.7,545.8,541.1,542.9,551.3z
			 M580.9,592.5c-4.8,0-9.4-4.7-9.3-9.5c0.1-4.9,4.5-9,9.7-8.9c5,0.1,8.9,4,9,9C590.2,588.2,585.8,592.6,580.9,592.5z M589.3,558.5
			c-5.2,0.1-9.1-3.6-9.4-8.6c-0.2-5.1,4-9.6,9-9.7c5.2,0,9.3,4.1,9.3,9.3C598.2,554.8,594.6,558.4,589.3,558.5z M647.6,584.5
			c-4.9,4.1-9.8,8.2-15.4,12.9c-1.2-7.8-2.4-14.9-3.4-22c-0.2-1.3,1-2,1.9-2.8c4.6-3.8,9.1-7.5,13.6-11.4c2-1.7,3.1-2,3.3,1.2
			c0.4,6.1,1,12.1,1.6,18.2C649.4,582.3,648.9,583.5,647.6,584.5z M684.4,453.6c-0.9,1.5-1.8,3.8-4,3.1c-1.9-0.6-1.4-2.8-1.4-4.5
			c0.2-6.1,2-11.9,4.8-17.3c0.9-1.7,1.8-4.2,4.2-3.5c2.3,0.7,0.7,3.3,1.4,4.6C689.2,442.6,687.4,448.3,684.4,453.6z M609.9,638.7
			c0.3,6.8-5.7,9.6-10.7,12.2c-13,6.7-27.1,10.2-41.4,12.9C497.3,675.5,436.1,678.6,370,678c-23.3,0.5-51.2,0-79.1-2.1
			c-40.1-3-80.2-6.5-119.1-17.2c-7.8-2.2-15.5-4.8-22.5-9c-11.7-6.9-11.7-14.6-0.1-21.4c10.6-6.2,22.4-9.4,34.2-12.1
			c38-8.7,76.7-12.2,115.5-14.5c48.2-2.9,96.4-3,144.6-0.6c39.7,2,79.2,5.4,118.1,13.9c12.9,2.8,25.6,6,37.5,12.1
			C604,629.7,609.6,632.4,609.9,638.7z M345.5,146.8c6.2-4.3,12.2-9.1,18.3-13.7c3.2-2.4,4.5-1.5,4.5,2.3
			c-0.1,5.1-0.2,10.2-0.3,15.2c0,2.7-1.3,4-4,4.8c-17.7,5.7-28.7,21.7-27.1,38.8c1.7,18.3,14.9,31.8,33.6,34.5
			c24.5,3.6,46.3-17.9,42.7-42.3c-2.3-15.4-11.1-25.7-25.9-30.9c-2.1-0.7-4.8-0.7-4.8-4.2c0-4.9-0.5-9.8-0.5-14.7
			c0-1.6,0.2-4,1.2-4.7c1.8-1.2,3.3,1,4.7,2c6.2,4.4,12.2,9.1,18.3,13.6c2.9,2.1,5.4,2.6,6.2-2.3c2.4-13.6,3.4-27.2,1.3-40.9
			c-0.5-3.2-1.7-3.6-4.3-1.8c-6,4-12.2,7.9-18.4,11.8c-1.9,1.2-4.4,3.2-6.5,1.5c-2.4-1.9-0.1-4.4,0.7-6.4
			c4.5-10.8,10.8-20.7,16.8-30.6c2-3.3,1.5-4.6-2.3-5.5c-8.2-2-16.5-1.6-24.7-1.6c-8-0.1-15.9-0.3-23.8,1.4
			c-5.2,1.1-5.4,1.7-2.7,6.3c5.8,9.9,11.9,19.6,16.5,30.2c0.9,2,2.2,4.5,0.5,6.2c-1.8,1.8-4.2-0.1-6-1.2
			c-6.1-3.7-12.1-7.4-17.9-11.5c-3.4-2.4-4.9-2.2-5.4,2.3c-1.3,12.7-1.1,25.3,1.2,37.9C339,150.2,339.8,150.8,345.5,146.8z
			 M381.7,179c0-2.5,0.4-5,0.7-7.5c1-7.1,1.5-7.4,7.3-3.3c4.5,3.2,7.9,7.2,10.2,12.2c2.3,5,1.7,6.1-3.6,6.9
			c-1.8,0.3-3.7,0.3-4.5,0.4C382.9,188.1,381.5,186.8,381.7,179z M393.8,198.8c5.4,0.8,6,2.5,2.9,7c-4.2,6.1-10.6,8.3-17.5,8.8
			c-6.4,0.5-12.8-0.2-18.8-2.8c-1.8-0.8-3.5-2-5-3.4c-2.6-2.3-4.8-5.7-3.9-8.9c0.9-3.2,5.2-2.3,8-2.7c3-0.5,6.1-0.1,9.1-0.1
			C377,196.6,385.4,197.5,393.8,198.8z M369.4,178.7c0.1,8.3-0.6,9.1-8.2,9c-3,0-6-0.3-9-0.8c-2.8-0.5-3.8-1.2-2.6-4.2
			c2.8-7.4,7.6-13,14.8-16.5c2.6-1.3,3.7-0.8,3.9,2.1C368.5,172,369.8,175.6,369.4,178.7z M288.2,215.7
			c-0.1-10.1,8.3-18.5,18.3-18.5c9.9,0,18,8.2,18.1,18.1c0.1,10.3-7.8,18.2-18.3,18.2C296.3,233.5,288.2,225.6,288.2,215.7z
			 M425.9,215.7c-0.1-10.4,8-18.6,18.2-18.5c9.9,0.1,18.3,8.3,18.4,18c0.1,10.2-8.1,18.3-18.4,18.2
			C433.7,233.5,426,225.9,425.9,215.7z M247.8,230.4c0.1-9,7.5-16.4,16.5-16.4c9.3-0.1,16.8,7.4,16.7,16.6c0,8.8-7.6,16.5-16.4,16.6
			C255.6,247.4,247.7,239.4,247.8,230.4z M469.8,230.3c0-9.2,7.1-16.3,16.2-16.3c9.3,0,16.6,7.4,16.6,16.7
			c-0.1,9-7.5,16.5-16.4,16.5C477.1,247.3,469.8,239.8,469.8,230.3z M510.6,248.9c0.3-8.4,7.1-14.8,15.5-14.7
			c8.4,0.1,14.9,6.7,14.9,15.2c0,8.2-6.9,15.2-15.1,15.2C517.7,264.6,510.4,257.1,510.6,248.9z M209.6,249.4
			c-0.1-8.7,6.3-15.2,14.8-15.3c8.6-0.1,15.2,6.4,15.2,14.9c0.1,8.5-6.5,15.3-14.9,15.5C216.5,264.7,209.7,257.9,209.6,249.4z
			 M173.5,268.3c0.2-7.9,6.8-14,15-13.9c7.7,0.1,14.2,6.5,14.3,14.1c0.1,8-6.8,14.7-15,14.5C179.8,282.8,173.2,276.1,173.5,268.3z
			 M548.1,268.6c0-8.2,6.3-14.3,14.6-14.2c8.3,0.1,14.3,6.2,14.2,14.5c-0.1,8.1-6.4,14.2-14.7,14.1
			C554.3,282.9,548,276.4,548.1,268.6z M388.9,251.8c0,7.8-6,13.9-13.7,13.9c-7.3-0.1-13.7-6.2-13.9-13.5c-0.2-7.5,6-13.9,13.7-14
			C383,238.1,388.9,243.9,388.9,251.8z M141.7,291.3c-0.1-7.3,5.8-13.4,13-13.3c7,0.1,12.7,5.9,12.7,13c0,7.2-5.5,12.8-12.7,12.9
			C147.5,304,141.8,298.4,141.7,291.3z M583,291c0.1-7.2,5.9-12.9,12.9-12.9c7,0,12.9,5.9,12.9,12.9c0,7-5.9,13-13,12.9
			C588.8,303.8,582.9,298,583,291z M387.5,285.8c0.1,6.6-5.4,12.3-12,12.4c-6.7,0.1-12.2-5.3-12.3-12c-0.1-6.8,5.2-12.3,11.9-12.4
			C381.7,273.7,387.3,279.2,387.5,285.8z M113.4,314.1c0.1-6.5,5.5-11.8,12-11.9c6.8,0,12.4,5.5,12.4,12.1c0,6.6-5.9,12.4-12.3,12.3
			C118.8,326.5,113.3,320.7,113.4,314.1z M613,314.2c0.1-7,5.3-12.1,12.3-12c6.8,0.1,12.2,5.8,12,12.5c-0.2,6.4-5.8,11.9-12.2,11.9
			C618.4,326.6,612.9,321,613,314.2z M91.2,336.5c-0.3-5.8,5.3-11.6,11.1-11.5c5.8,0,11,5.2,11,11.1c0.1,6-4.8,11-10.8,11.1
			C96.5,347.2,91.5,342.5,91.2,336.5z M386.4,318.6c-0.1,5.8-5.3,11-11.1,11c-6.1,0-11.1-5.2-11-11.5c0.1-6,5.2-10.8,11.2-10.7
			C381.2,307.5,386.4,312.8,386.4,318.6z M637.3,336.4c-0.1-6,4.6-11.1,10.5-11.4c5.9-0.3,11.5,5.1,11.5,11.1
			c0,5.9-4.9,10.9-10.9,11C642.3,347.2,637.4,342.5,637.3,336.4z"/>
	</g>
</svg>
