<svg xmlns="http://www.w3.org/2000/svg"  viewBox="0 0 100 100" width="200px" height="200px"><path fill="#c7ede6" d="M87.215,56.71C88.35,54.555,89,52.105,89,49.5c0-6.621-4.159-12.257-10.001-14.478 C78.999,35.015,79,35.008,79,35c0-11.598-9.402-21-21-21c-9.784,0-17.981,6.701-20.313,15.757C36.211,29.272,34.638,29,33,29 c-7.692,0-14.023,5.793-14.89,13.252C12.906,43.353,9,47.969,9,53.5C9,59.851,14.149,65,20.5,65c0.177,0,0.352-0.012,0.526-0.022 C21.022,65.153,21,65.324,21,65.5C21,76.822,30.178,86,41.5,86c6.437,0,12.175-2.972,15.934-7.614C59.612,80.611,62.64,82,66,82 c4.65,0,8.674-2.65,10.666-6.518C77.718,75.817,78.837,76,80,76c6.075,0,11-4.925,11-11C91,61.689,89.53,58.727,87.215,56.71z"/><path fill="#fff" d="M33.405,78H23.5c-0.276,0-0.5-0.224-0.5-0.5s0.224-0.5,0.5-0.5h9.905c0.276,0,0.5,0.224,0.5,0.5 S33.682,78,33.405,78z"/><path fill="#fff" d="M36.5,78h-1c-0.276,0-0.5-0.224-0.5-0.5s0.224-0.5,0.5-0.5h1c0.276,0,0.5,0.224,0.5,0.5 S36.777,78,36.5,78z"/><path fill="#fff" d="M41.491,80H32.5c-0.276,0-0.5-0.224-0.5-0.5s0.224-0.5,0.5-0.5h8.991c0.276,0,0.5,0.224,0.5,0.5 S41.767,80,41.491,80z"/><path fill="#fff" d="M30.5,80h-1c-0.276,0-0.5-0.224-0.5-0.5s0.224-0.5,0.5-0.5h1c0.276,0,0.5,0.224,0.5,0.5 S30.777,80,30.5,80z"/><path fill="#fff" d="M27.5,80h-2c-0.276,0-0.5-0.224-0.5-0.5s0.224-0.5,0.5-0.5h2c0.276,0,0.5,0.224,0.5,0.5 S27.777,80,27.5,80z"/><path fill="#fff" d="M33.5,82h-2c-0.276,0-0.5-0.224-0.5-0.5s0.224-0.5,0.5-0.5h2c0.276,0,0.5,0.224,0.5,0.5 S33.776,82,33.5,82z"/><path fill="#fff" d="M36.5,73c-0.177,0-0.823,0-1,0c-0.276,0-0.5,0.224-0.5,0.5c0,0.276,0.224,0.5,0.5,0.5 c0.177,0,0.823,0,1,0c0.276,0,0.5-0.224,0.5-0.5C37,73.224,36.776,73,36.5,73z"/><path fill="#fff" d="M36.5,75c-0.177,0-4.823,0-5,0c-0.276,0-0.5,0.224-0.5,0.5c0,0.276,0.224,0.5,0.5,0.5 c0.177,0,4.823,0,5,0c0.276,0,0.5-0.224,0.5-0.5C37,75.224,36.776,75,36.5,75z"/><path fill="#fff" d="M41.5,77c-0.177,0-2.823,0-3,0c-0.276,0-0.5,0.224-0.5,0.5c0,0.276,0.224,0.5,0.5,0.5 c0.177,0,2.823,0,3,0c0.276,0,0.5-0.224,0.5-0.5C42,77.224,41.776,77,41.5,77z"/><path fill="#fff" d="M71.5,26h-10c-0.276,0-0.5-0.224-0.5-0.5s0.224-0.5,0.5-0.5h10c0.276,0,0.5,0.224,0.5,0.5 S71.776,26,71.5,26z"/><path fill="#fff" d="M75.5,26h-2c-0.276,0-0.5-0.224-0.5-0.5s0.224-0.5,0.5-0.5h2c0.276,0,0.5,0.224,0.5,0.5 S75.776,26,75.5,26z"/><path fill="#fff" d="M80.5,28h-10c-0.276,0-0.5-0.224-0.5-0.5s0.224-0.5,0.5-0.5h10c0.276,0,0.5,0.224,0.5,0.5 S80.777,28,80.5,28z"/><path fill="#fff" d="M68.5,28h-1c-0.276,0-0.5-0.224-0.5-0.5s0.224-0.5,0.5-0.5h1c0.276,0,0.5,0.224,0.5,0.5 S68.776,28,68.5,28z"/><path fill="#fff" d="M65.375,28H63.5c-0.276,0-0.5-0.224-0.5-0.5s0.224-0.5,0.5-0.5h1.875c0.276,0,0.5,0.224,0.5,0.5 S65.651,28,65.375,28z"/><path fill="#fff" d="M74.5,24h-5c-0.276,0-0.5-0.224-0.5-0.5s0.224-0.5,0.5-0.5h5c0.276,0,0.5,0.224,0.5,0.5 S74.777,24,74.5,24z"/><path fill="#fff" d="M71.5,30h-2c-0.276,0-0.5-0.224-0.5-0.5s0.224-0.5,0.5-0.5h2c0.276,0,0.5,0.224,0.5,0.5 S71.776,30,71.5,30z"/><path fill="#fdfcef" d="M24.815,47.507c0,0,11.691,0,11.762,0c2.7,0,4.888-2.189,4.888-4.889 c0-2.355-1.666-4.321-3.884-4.784c0.026-0.206,0.043-0.415,0.043-0.628c0-2.796-2.267-5.063-5.063-5.063 c-1.651,0-3.113,0.794-4.037,2.017c-0.236-3.113-3.017-5.514-6.27-5.116c-2.379,0.291-4.346,2.13-4.784,4.486 c-0.14,0.756-0.126,1.489,0.014,2.177c-0.638-0.687-1.546-1.119-2.557-1.119c-1.85,0-3.361,1.441-3.48,3.261 c-0.84-0.186-1.754-0.174-2.717,0.188c-1.84,0.691-3.15,2.423-3.227,4.387c-0.109,2.789,2.12,5.085,4.885,5.085 c0.21,0,0.948,0,1.118,0h10.151"/><path fill="#472b29" d="M36.576,48.007H24.815c-0.276,0-0.5-0.224-0.5-0.5s0.224-0.5,0.5-0.5h11.762 c2.42,0,4.389-1.969,4.389-4.389c0-2.067-1.466-3.873-3.486-4.295c-0.254-0.053-0.426-0.292-0.394-0.55 c0.022-0.186,0.039-0.375,0.039-0.567c0-2.516-2.047-4.563-4.563-4.563c-1.438,0-2.765,0.663-3.638,1.818 c-0.125,0.166-0.342,0.237-0.539,0.179c-0.2-0.059-0.342-0.235-0.358-0.442c-0.104-1.377-0.778-2.671-1.85-3.549 c-1.084-0.887-2.452-1.279-3.861-1.109c-2.165,0.265-3.955,1.943-4.353,4.081c-0.124,0.667-0.12,1.335,0.013,1.986 c0.044,0.22-0.063,0.442-0.262,0.544c-0.197,0.102-0.442,0.061-0.595-0.104c-0.574-0.619-1.353-0.959-2.19-0.959 c-1.568,0-2.878,1.227-2.98,2.793c-0.01,0.146-0.082,0.28-0.199,0.367c-0.116,0.087-0.268,0.119-0.407,0.088 c-0.844-0.186-1.64-0.131-2.434,0.167c-1.669,0.626-2.836,2.209-2.903,3.938c-0.047,1.207,0.387,2.35,1.222,3.218 c0.835,0.869,1.959,1.347,3.163,1.347h11.27c0.276,0,0.5,0.224,0.5,0.5s-0.224,0.5-0.5,0.5h-11.27 c-1.479,0-2.858-0.587-3.884-1.653s-1.559-2.469-1.501-3.951c0.084-2.126,1.511-4.069,3.552-4.836c0.8-0.3,1.628-0.4,2.468-0.298 c0.377-1.823,1.996-3.182,3.904-3.182c0.685,0,1.354,0.179,1.944,0.51c-0.001-0.386,0.035-0.773,0.107-1.159 c0.476-2.562,2.619-4.573,5.214-4.891c1.688-0.206,3.321,0.267,4.616,1.328c1.004,0.823,1.716,1.951,2.038,3.193 c1.012-0.916,2.318-1.425,3.713-1.425c3.067,0,5.563,2.496,5.563,5.563c0,0.083-0.002,0.166-0.007,0.249 c2.254,0.672,3.848,2.777,3.848,5.164C41.965,45.59,39.548,48.007,36.576,48.007z"/><path fill="#fdfcef" d="M21.982,36.738c-1.808-0.119-3.365,1.13-3.476,2.789c-0.014,0.206-0.005,0.409,0.025,0.606 c-0.349-0.394-0.865-0.661-1.458-0.7c-1.085-0.071-2.022,0.645-2.158,1.62c-0.197-0.054-0.403-0.09-0.616-0.104 c-1.582-0.104-2.944,0.989-3.042,2.441"/><path fill="#472b29" d="M11.257,43.64c-0.006,0-0.011,0-0.017,0c-0.138-0.009-0.242-0.128-0.232-0.266 c0.106-1.586,1.563-2.783,3.308-2.674c0.135,0.009,0.271,0.027,0.408,0.053c0.272-0.967,1.255-1.639,2.365-1.568 c0.426,0.028,0.824,0.161,1.163,0.382c0.001-0.019,0.002-0.037,0.004-0.055c0.12-1.794,1.8-3.146,3.742-3.022 c0.138,0.009,0.242,0.128,0.232,0.266c-0.008,0.137-0.106,0.245-0.266,0.233c-1.658-0.104-3.108,1.038-3.211,2.557 c-0.012,0.186-0.004,0.372,0.023,0.551c0.017,0.11-0.041,0.217-0.141,0.265c-0.102,0.046-0.221,0.022-0.294-0.061 c-0.317-0.358-0.786-0.583-1.287-0.616c-0.959-0.064-1.774,0.555-1.893,1.405c-0.011,0.071-0.051,0.134-0.11,0.174 s-0.135,0.052-0.203,0.033c-0.189-0.051-0.38-0.084-0.567-0.096c-1.452-0.099-2.687,0.896-2.776,2.208 C11.497,43.538,11.388,43.64,11.257,43.64z"/><g><path fill="#fdfcef" d="M38.556,38.407c-1.699-0.801-3.664-0.234-4.389,1.267c-0.09,0.186-0.157,0.379-0.201,0.574"/><path fill="#472b29" d="M33.966,40.497c-0.019,0-0.037-0.002-0.057-0.006c-0.134-0.031-0.218-0.166-0.187-0.3 c0.05-0.216,0.123-0.427,0.219-0.625c0.783-1.622,2.9-2.243,4.721-1.384c0.125,0.059,0.179,0.208,0.12,0.333 c-0.06,0.125-0.21,0.177-0.333,0.12c-1.575-0.743-3.394-0.226-4.057,1.149c-0.08,0.165-0.142,0.34-0.184,0.521 C34.183,40.419,34.08,40.497,33.966,40.497z"/></g><g><path fill="#fdfcef" d="M85.123,62.531c1.883,0,3.517,0,3.54,0c2.11,0,3.821-1.674,3.821-3.739 c0-1.802-1.302-3.305-3.035-3.66c0.02-0.158,0.034-0.317,0.034-0.48c0-2.139-1.772-3.873-3.957-3.873 c-1.29,0-2.433,0.607-3.155,1.543c-0.185-2.381-2.358-4.218-4.9-3.913c-1.859,0.223-3.397,1.629-3.739,3.431 c-0.11,0.578-0.098,1.139,0.011,1.665c-0.498-0.525-1.208-0.856-1.998-0.856c-1.446,0-2.627,1.102-2.72,2.494 C68.367,55,67.652,55.01,66.9,55.286c-1.438,0.528-2.462,1.853-2.522,3.356c-0.085,2.133,1.657,3.889,3.818,3.889 c0.164,0,0.741,0,0.874,0h7.934 M78.645,62.531h0.36"/><path fill="#472b29" d="M88.662,63.031h-3.54c-0.276,0-0.5-0.224-0.5-0.5s0.224-0.5,0.5-0.5h3.54 c1.831,0,3.321-1.453,3.321-3.239c0-1.524-1.108-2.857-2.637-3.17c-0.257-0.052-0.429-0.294-0.396-0.554 c0.018-0.137,0.03-0.275,0.03-0.416c0-1.86-1.551-3.373-3.457-3.373c-1.093,0-2.099,0.491-2.76,1.348 c-0.125,0.165-0.343,0.232-0.538,0.174c-0.198-0.059-0.34-0.234-0.355-0.44c-0.079-1.019-0.565-1.943-1.37-2.603 c-0.828-0.68-1.886-0.984-2.973-0.853c-1.646,0.197-3.006,1.442-3.307,3.028c-0.094,0.494-0.091,0.988,0.009,1.471 c0.046,0.219-0.06,0.441-0.258,0.544c-0.196,0.104-0.439,0.064-0.595-0.099c-0.428-0.451-1.008-0.7-1.635-0.7 c-1.17,0-2.146,0.891-2.221,2.027c-0.01,0.145-0.082,0.279-0.198,0.366c-0.115,0.088-0.263,0.12-0.406,0.089 c-0.639-0.139-1.241-0.097-1.847,0.124c-1.262,0.464-2.144,1.632-2.193,2.906c-0.035,0.875,0.282,1.708,0.895,2.345 c0.635,0.661,1.495,1.024,2.423,1.024h8.808c0.276,0,0.5,0.224,0.5,0.5s-0.224,0.5-0.5,0.5h-8.808 c-1.185,0-2.331-0.485-3.144-1.332c-0.803-0.835-1.219-1.928-1.174-3.078c0.066-1.674,1.212-3.203,2.849-3.805 c0.612-0.225,1.245-0.307,1.881-0.245c0.345-1.396,1.629-2.424,3.136-2.424c0.493,0,0.977,0.113,1.413,0.323 c0.01-0.242,0.037-0.484,0.083-0.726c0.381-2.009,2.096-3.585,4.17-3.834c1.364-0.16,2.686,0.218,3.727,1.073 c0.747,0.613,1.278,1.409,1.546,2.301c0.791-0.648,1.785-1.006,2.843-1.006c2.458,0,4.457,1.961,4.457,4.373 c0,0.034-0.001,0.068-0.002,0.103c1.765,0.555,3.004,2.188,3.004,4.038C92.984,61.129,91.045,63.031,88.662,63.031z M79.004,63.031h-0.359c-0.276,0-0.5-0.224-0.5-0.5s0.224-0.5,0.5-0.5h0.359c0.276,0,0.5,0.224,0.5,0.5 S79.281,63.031,79.004,63.031z"/><path fill="#472b29" d="M86.955,57.227c-0.018,0-0.036-0.002-0.055-0.006c-0.135-0.03-0.22-0.164-0.189-0.299 c0.038-0.167,0.095-0.329,0.17-0.479c0.604-1.223,2.273-1.673,3.721-1.006c0.126,0.058,0.181,0.207,0.122,0.332 c-0.057,0.125-0.209,0.179-0.331,0.122c-1.204-0.556-2.579-0.21-3.063,0.774c-0.058,0.115-0.102,0.238-0.13,0.367 C87.173,57.148,87.07,57.227,86.955,57.227z"/><g><path fill="#472b29" d="M81.796,63.031h-1.107c-0.276,0-0.5-0.224-0.5-0.5s0.224-0.5,0.5-0.5h1.107 c0.276,0,0.5,0.224,0.5,0.5S82.073,63.031,81.796,63.031z"/></g></g><g><path fill="#cfd7e2" d="M39,37h31c2.209,0,4,1.791,4,4v31c0,2.209-1.791,4-4,4H53c-0.43,0-0.813-0.275-0.949-0.684L39,37z"/></g><polygon fill="#355ca8" points="49.75,66.375 53,75 60,66.25"/><path fill="#472b29" d="M70,38.4c1.434,0,2.6,1.166,2.6,2.6v31c0,1.434-1.166,2.6-2.6,2.6H53.286l-12.33-36.2H70 M70,37H39	l13.051,38.316C52.187,75.725,52.57,76,53,76h17c2.209,0,4-1.791,4-4V41C74,38.791,72.209,37,70,37L70,37z"/><rect width="11.636" height="1.4" x="50.87" y="69.8" fill="#472b29" transform="rotate(-50.632 56.692 70.5)"/><path fill="#7c8a9f" d="M69.65,48.75h-6.8c-0.055,0-0.1-0.045-0.1-0.1v-2.3c0-0.055-0.045-0.1-0.1-0.1h-2.3	c-0.055,0-0.1,0.045-0.1,0.1v2.3c0,0.055-0.045,0.1-0.1,0.1h-5.3c-0.055,0-0.1,0.045-0.1,0.1v2.3c0,0.055,0.045,0.1,0.1,0.1h9.244	c0.061,0,0.109,0.054,0.103,0.114c-0.212,1.97-1.051,3.83-2.408,5.297l-0.007,0.007C59.331,53.933,59.125,53,59.125,53	S58,53,56.5,53c1,2.375,2.875,4.5,2.875,4.5l0.813,0.8L54.625,64H58l3.83-4.085L67,65l1.5-1.5c0,0-0.5-0.5-4.5-4.5	c-0.238-0.238-0.457-0.462-0.672-0.683L63.625,58c1.564-1.653,2.77-4.35,2.86-6.659c0.002-0.052,0.044-0.091,0.096-0.091h3.069	c0.055,0,0.1-0.045,0.1-0.1v-2.3C69.75,48.795,69.705,48.75,69.65,48.75z"/><path fill="#472b29" d="M62.5,46.5v2.15c0,0.193,0.157,0.35,0.35,0.35h6.65v2h-2.919c-0.187,0-0.338,0.146-0.346,0.332	c-0.085,2.177-1.233,4.848-2.793,6.497l-0.297,0.317c-0.091,0.098-0.09,0.25,0.003,0.345c0.216,0.222,0.436,0.447,0.675,0.685	l4.323,4.323l-1.148,1.148l-4.993-4.911c-0.047-0.046-0.11-0.072-0.175-0.072c-0.002,0-0.003,0-0.005,0	c-0.067,0.001-0.131,0.03-0.177,0.079l-3.756,4.006h-2.673l5.149-5.275c0.096-0.099,0.094-0.256-0.004-0.353l-0.801-0.787	c-0.018-0.02-1.679-1.917-2.679-4.085h2.065c0.17,0.406,0.745,1.462,2.647,3.585c0.047,0.052,0.117,0.079,0.188,0.08	c0.001,0,0.001,0,0.002,0c0.07,0,0.14-0.033,0.187-0.084c1.378-1.49,2.257-3.422,2.474-5.44c0.01-0.099-0.022-0.199-0.089-0.273	C64.289,51.043,64.193,51,64.094,51H55v-2h5.15c0.193,0,0.35-0.157,0.35-0.35V46.5H62.5 M62.65,46.25h-2.3	c-0.055,0-0.1,0.045-0.1,0.1v2.3c0,0.055-0.045,0.1-0.1,0.1h-5.3c-0.055,0-0.1,0.045-0.1,0.1v2.3c0,0.055,0.045,0.1,0.1,0.1h9.244	c0.061,0,0.109,0.054,0.103,0.114c-0.212,1.97-1.051,3.83-2.408,5.297l-0.007,0.007C59.331,53.933,59.125,53,59.125,53	S58,53,56.5,53c1,2.375,2.875,4.5,2.875,4.5l0.813,0.8L54.625,64H58l3.83-4.085L67,65l1.5-1.5c0,0-0.5-0.5-4.5-4.5	c-0.238-0.238-0.457-0.462-0.672-0.683L63.625,58c1.564-1.653,2.77-4.35,2.86-6.659c0.002-0.052,0.044-0.091,0.096-0.091h3.069	c0.055,0,0.1-0.045,0.1-0.1v-2.3c0-0.055-0.045-0.1-0.1-0.1h-6.8c-0.055,0-0.1-0.045-0.1-0.1v-2.3	C62.75,46.295,62.705,46.25,62.65,46.25L62.65,46.25z"/><g><path fill="#55a7f9" d="M60,67H30c-2.209,0-4-1.791-4-4V32c0-2.209,1.791-4,4-4h16.572c0.854,0,1.614,0.542,1.891,1.35 l12.485,36.334C61.165,66.331,60.683,67,60,67z"/></g><g><path fill="#fff" d="M34,54.661c0-0.033,0.016-0.115,0.046-0.246l4.454-14.501c0.093-0.291,0.319-0.516,0.68-0.675 C39.542,39.08,39.953,39,40.415,39c0.462,0,0.876,0.089,1.245,0.265c0.369,0.177,0.599,0.427,0.691,0.749l4.45,14.502 c0.031,0.123,0.046,0.2,0.046,0.231c0,0.338-0.208,0.63-0.622,0.876c-0.415,0.246-0.839,0.369-1.269,0.369 c-0.569,0-0.907-0.2-1.014-0.599l-0.877-3.066h-4.939l-0.86,3.068c-0.121,0.399-0.502,0.598-1.143,0.598 c-0.502,0-0.981-0.127-1.439-0.382C34.229,55.356,34,55.039,34,54.661z M38.785,49.974h3.987l-2.006-7.078L38.785,49.974z"/></g><g><path fill="#472b29" d="M44.956,56.117c-0.631,0-1.012-0.233-1.135-0.692l-0.851-2.974h-4.749l-0.835,2.977 c-0.139,0.458-0.563,0.689-1.263,0.689c-0.521,0-1.025-0.134-1.499-0.397c-0.498-0.278-0.75-0.634-0.75-1.059 c0-0.032,0.006-0.089,0.05-0.275l4.457-14.509c0.104-0.327,0.355-0.58,0.748-0.753c0.376-0.166,0.809-0.25,1.285-0.25 c0.476,0,0.912,0.093,1.299,0.277c0.4,0.192,0.655,0.471,0.757,0.828l4.449,14.5c0.04,0.16,0.053,0.226,0.053,0.267 c0,0.383-0.23,0.714-0.685,0.984C45.855,55.987,45.407,56.117,44.956,56.117z M38.127,52.201h4.938c0.056,0,0.104,0.037,0.12,0.091 l0.877,3.066c0.092,0.343,0.384,0.509,0.894,0.509c0.405,0,0.812-0.118,1.205-0.351c0.378-0.225,0.562-0.476,0.562-0.769 c-0.001-0.013-0.009-0.06-0.043-0.201l-4.448-14.495c-0.083-0.292-0.287-0.511-0.625-0.673c-0.353-0.168-0.753-0.253-1.191-0.253 c-0.442,0-0.84,0.077-1.184,0.228c-0.329,0.146-0.529,0.341-0.611,0.599l-4.454,14.5c-0.038,0.163-0.041,0.203-0.041,0.209 c0,0.332,0.203,0.606,0.621,0.84c0.437,0.243,0.9,0.366,1.378,0.366c0.584,0,0.919-0.167,1.023-0.509l0.859-3.065 C38.021,52.238,38.071,52.201,38.127,52.201z M42.772,50.1h-3.987c-0.039,0-0.076-0.018-0.1-0.049s-0.031-0.072-0.021-0.109 l1.981-7.078c0.015-0.054,0.063-0.091,0.12-0.091l0,0c0.056,0,0.105,0.037,0.12,0.091l2.006,7.078 c0.011,0.038,0.003,0.078-0.021,0.109S42.812,50.1,42.772,50.1z M38.95,49.85h3.657l-1.84-6.492L38.95,49.85z"/></g><path fill="#472b29" d="M47.001,29.4L59.44,65.6H30c-1.434,0-2.6-1.166-2.6-2.6V32c0-1.434,1.166-2.6,2.6-2.6H47.001 M47.286,28H30c-2.209,0-4,1.791-4,4v31c0,2.209,1.791,4,4,4h30c0.683,0,1.165-0.669,0.949-1.316L48.232,28.675	C48.093,28.271,47.713,28,47.286,28L47.286,28z"/><g><path fill="#472b29" d="M29.25,62.5c-0.138,0-0.25-0.112-0.25-0.25v-18c0-0.138,0.112-0.25,0.25-0.25s0.25,0.112,0.25,0.25 v18C29.5,62.388,29.388,62.5,29.25,62.5z"/><path fill="#472b29" d="M29.25,42C29.112,42,29,41.888,29,41.75v-4.5c0-0.138,0.112-0.25,0.25-0.25s0.25,0.112,0.25,0.25 v4.5C29.5,41.888,29.388,42,29.25,42z"/><path fill="#472b29" d="M29.25,35C29.112,35,29,34.888,29,34.75v-2.5c0-0.138,0.112-0.25,0.25-0.25s0.25,0.112,0.25,0.25 v2.5C29.5,34.888,29.388,35,29.25,35z"/></g><path fill="#472b29" d="M70.75,57c-0.138,0-0.25-0.112-0.25-0.25v-2.5c0-0.138,0.112-0.25,0.25-0.25S71,54.112,71,54.25v2.5	C71,56.888,70.888,57,70.75,57z"/><path fill="#472b29" d="M70.75,67c-0.138,0-0.25-0.112-0.25-0.25v-7.5c0-0.138,0.112-0.25,0.25-0.25S71,59.112,71,59.25v7.5	C71,66.888,70.888,67,70.75,67z"/><path fill="#472b29" d="M68.75,73h-3.5C65.112,73,65,72.888,65,72.75s0.112-0.25,0.25-0.25h3.5c0.965,0,1.75-0.785,1.75-1.75	v-1.5c0-0.138,0.112-0.25,0.25-0.25S71,69.112,71,69.25v1.5C71,71.991,69.99,73,68.75,73z"/><path fill="#472b29" d="M62.75,73h-3.5C59.112,73,59,72.888,59,72.75s0.112-0.25,0.25-0.25h3.5c0.138,0,0.25,0.112,0.25,0.25	S62.888,73,62.75,73z"/></svg>